PathFileType	4	(X/Y/Z)	C:\My Captures\DataSMARTClinic\0056~004 ID\0056~aa~STRATO3\Standing_ID_04_STRATO.trc
DataRate	CameraRate	NumFrames	NumMarkers	Units	OrigDataRate	OrigDataStartFrame	OrigNumFrames
250.00	250.00	12	22	mm	250.00	1295	2621
Frame#	Time	r.should			l.should			c7			r.asis			l.asis			sacrum			r.bar1			l.bar1			r.knee1			l.knee1			r.bar2			r.mall			l.bar2			l.mall			r.met			r.heel			l.heel			l.met			r.mallm			l.mallm			r.kneem			l.kneem			
		X1	Y1	Z1	X2	Y2	Z2	X3	Y3	Z3	X4	Y4	Z4	X5	Y5	Z5	X6	Y6	Z6	X7	Y7	Z7	X8	Y8	Z8	X9	Y9	Z9	X10	Y10	Z10	X11	Y11	Z11	X12	Y12	Z12	X13	Y13	Z13	X14	Y14	Z14	X15	Y15	Z15	X16	Y16	Z16	X17	Y17	Z17	X18	Y18	Z18	X19	Y19	Z19	X20	Y20	Z20	X21	Y21	Z21	X22	Y22	Z22	

1294	5.176000	875.164509	1252.433062	359.626085	861.300826	1256.984472	77.201992	782.801390	1314.167023	217.249274	978.513181	881.356597	342.176497	981.433749	874.304771	102.493294	736.717820	907.382250	207.837969	870.507181	801.167250	425.296009	888.291419	771.259248	24.308061	903.886437	463.438749	409.223437	885.182619	471.737981	78.525171	881.271601	402.082562	416.331112	830.165207	71.070202	438.003749	867.810547	397.795618	78.164175	853.792608	72.037414	91.590978	969.486654	43.376472	433.907390	777.983427	53.755235	390.663743	796.879709	58.057051	127.552122	985.255659	43.782331	114.820778	857.928753	69.361880	361.508578	866.540074	72.715707	168.977886	898.427904	447.494656	261.419564	857.474089	447.480917	221.649677	
1295	5.180000	875.152886	1252.428055	359.625280	861.296296	1256.990910	77.205352	782.809079	1314.165473	217.251092	978.505135	881.360114	342.190027	981.452048	874.302864	102.505155	736.722469	907.378256	207.831740	870.545149	801.174819	425.288230	888.304412	771.257281	24.310259	903.894603	463.451535	409.228265	885.201097	471.735746	78.524128	881.278872	402.088225	416.335404	830.166519	71.076185	437.999874	867.827296	397.797793	78.164540	853.762627	72.040305	91.580421	969.480336	43.373536	433.909595	777.993083	53.784676	390.672207	796.876490	58.087368	127.577990	985.267878	43.796856	114.821829	857.941091	69.346696	361.477375	866.543770	72.720468	168.980286	898.411274	447.498947	261.424959	857.489049	447.478652	221.648276	
1296	5.184000	875.144124	1252.433896	359.624028	861.293495	1256.991744	77.208534	782.809258	1314.161539	217.251658	978.510559	881.378412	342.189699	981.468737	874.314308	102.512129	736.731172	907.372355	207.828179	870.539606	801.177263	425.307095	888.315141	771.252096	24.320954	903.910995	463.463634	409.231663	885.212183	471.738040	78.525409	881.278634	402.099192	416.339427	830.158412	71.073145	437.996984	867.846191	397.798866	78.166783	853.765607	72.044022	91.558784	969.478428	43.378849	433.908165	778.008282	53.781681	390.655428	796.898127	58.094531	127.573282	985.268712	43.801781	114.816584	857.939720	69.344670	361.490071	866.547525	72.730482	168.988153	898.408175	447.512567	261.430770	857.500196	447.476119	221.656829	
1297	5.188000	875.157118	1252.436280	359.614044	861.291945	1256.999373	77.203661	782.787085	1314.178228	217.235327	978.525341	881.398261	342.192352	981.470048	874.315143	102.528207	736.723900	907.373250	207.823157	870.527923	801.175237	425.317138	888.325810	771.252573	24.323251	903.905511	463.467389	409.236670	885.204673	471.736342	78.526556	881.288528	402.104914	416.346371	830.151975	71.079955	437.992990	867.856264	397.799402	78.163415	853.781521	72.053760	91.552258	969.499409	43.400567	433.897197	777.969360	53.761199	390.661895	796.883762	58.110502	127.570450	985.268593	43.802939	114.810720	857.941985	69.341123	361.506402	866.546690	72.744660	168.982834	898.400247	447.493792	261.436284	857.491434	447.465599	221.652880	
1298	5.192000	875.148475	1252.429724	359.606236	861.301422	1257.009864	77.204831	782.767892	1314.183593	217.219949	978.537619	881.417572	342.193365	981.461406	874.328494	102.544613	736.735106	907.368541	207.822964	870.500445	801.188171	425.315201	888.350487	771.250784	24.314560	903.886318	463.466346	409.232140	885.207236	471.736372	78.532614	881.280422	402.117282	416.342258	830.151439	71.093634	437.991023	867.847979	397.795409	78.173026	853.799343	72.054148	91.555387	969.503284	43.419767	433.891356	777.980030	53.754967	390.655071	796.882153	58.112226	127.572000	985.262871	43.811556	114.812836	857.921958	69.345802	361.503065	866.533816	72.748803	168.973744	898.430526	447.504640	261.430562	857.478678	447.462499	221.661955	
1299	5.196000	875.135660	1252.436638	359.602094	861.303091	1257.017374	77.204481	782.732129	1314.194441	217.212558	978.554010	881.438792	342.191875	981.485546	874.347448	102.544069	736.724079	907.368898	207.811639	870.525420	801.198125	425.307989	888.392806	771.261215	24.309026	903.866231	463.471591	409.224004	885.223627	471.737772	78.531265	881.266236	402.131051	416.333109	830.133140	71.099445	437.987566	867.858887	397.792935	78.179687	853.819251	72.054692	91.562599	969.495177	43.427680	433.890611	777.984142	53.753726	390.660644	796.876907	58.123559	127.561092	985.262036	43.822512	114.808090	857.917786	69.342270	361.509681	866.534412	72.753184	168.962583	898.439646	447.506964	261.425316	857.478976	447.469592	221.669599	
1300	5.200000	875.129342	1252.434254	359.599352	861.310184	1257.034421	77.207461	782.687724	1314.207077	217.221186	978.560567	881.454349	342.192233	981.501222	874.362171	102.539934	736.713648	907.369554	207.796589	870.537043	801.213622	425.293982	888.397932	771.266162	24.307897	903.846443	463.487685	409.218609	885.233879	471.736610	78.534514	881.247699	402.139068	416.319549	830.125809	71.108200	437.975854	867.873311	397.796750	78.175440	853.824079	72.044991	91.564603	969.491720	43.435633	433.885694	777.994454	53.754795	390.663803	796.869159	58.151983	127.542183	985.260427	43.827537	114.801310	857.923031	69.350518	361.507475	866.548419	72.768226	168.956369	898.446858	447.499424	261.436284	857.474566	447.470486	221.669346	
1301	5.204000	875.128746	1252.448678	359.589517	861.304998	1257.051349	77.193029	782.665193	1314.213753	217.207268	978.563666	881.465793	342.188954	981.535375	874.386430	102.539442	736.708343	907.377422	207.795456	870.541155	801.212490	425.291181	888.386488	771.263838	24.314182	903.828740	463.494360	409.215271	885.244012	471.742541	78.532055	881.240249	402.144551	416.321903	830.120444	71.115345	437.964201	867.874980	397.803724	78.170888	853.779495	72.040766	91.568656	969.481945	43.435868	433.881432	777.996242	53.754788	390.652210	796.865463	58.161773	127.536997	985.258996	43.828987	114.794731	857.916355	69.348350	361.511409	866.543174	72.781891	168.947995	898.448944	447.496653	261.431009	857.490420	447.463870	221.654803	
1302	5.208000	875.119805	1252.465725	359.582424	861.322761	1257.069468	77.191591	782.669365	1314.226627	217.180297	978.561938	881.482124	342.186302	981.548607	874.392927	102.554537	736.698329	907.384872	207.797483	870.521307	801.228225	425.295353	888.403058	771.260262	24.314798	903.827131	463.503242	409.202278	885.252833	471.740872	78.531191	881.226480	402.151108	416.322321	830.122292	71.119666	437.958390	867.880106	397.795230	78.171082	853.767395	72.044045	91.574803	969.486535	43.444209	433.879614	777.999282	53.743944	390.628785	796.848357	58.163512	127.541736	985.262513	43.840114	114.794210	857.910812	69.340639	361.502826	866.538167	72.791375	168.938473	898.430467	447.494149	261.429936	857.497811	447.465122	221.649066	
1303	5.212000	875.112653	1252.469420	359.576553	861.325145	1257.082462	77.194229	782.668233	1314.234376	217.177883	978.566766	881.506562	342.193335	981.569171	874.396741	102.551296	736.699939	907.390356	207.788482	870.535374	801.261067	425.307870	888.407826	771.253467	24.316043	903.822482	463.516146	409.203172	885.251284	471.733510	78.542180	881.229639	402.162135	416.314423	830.113769	71.132325	437.949806	867.885828	397.789598	78.171059	853.765190	72.045349	91.565177	969.497204	43.452933	433.870494	778.003395	53.747386	390.640408	796.845078	58.167979	127.533242	985.251367	43.848313	114.792421	857.917368	69.340974	361.508369	866.532922	72.799742	168.934301	898.448467	447.511196	261.427641	857.497156	447.476476	221.655250	
1304	5.216000	875.126839	1252.482176	359.581143	861.322105	1257.096171	77.195823	782.642961	1314.234138	217.179596	978.586733	881.525218	342.200756	981.587768	874.394059	102.540210	736.710727	907.390475	207.784891	870.545685	801.266313	425.305367	888.421893	771.256566	24.318755	903.840303	463.529587	409.205616	885.258079	471.731514	78.542233	881.232977	402.175814	416.305155	830.104232	71.144335	437.934816	867.899239	397.790372	78.164801	853.740215	72.033972	91.551572	969.512165	43.463018	433.857799	778.007984	53.744700	390.662283	796.844482	58.188464	127.523452	985.249937	43.853037	114.788465	857.943475	69.345713	361.510128	866.534948	72.806150	168.939576	898.446560	447.521806	261.435926	857.505083	447.492212	221.652836	
1305	5.220000	875.120640	1252.482057	359.591126	861.328840	1257.107258	77.205718	782.615781	1314.242721	217.182174	978.588998	881.533980	342.198044	981.586397	874.404788	102.538750	736.704290	907.401204	207.791150	870.519638	801.278591	425.293714	888.425887	771.265447	24.324626	903.855681	463.539958	409.199387	885.269582	471.733451	78.547403	881.229997	402.189732	416.303128	830.101490	71.150191	437.929004	867.892206	397.785664	78.178659	853.737235	72.025023	91.561049	969.516098	43.477491	433.850795	778.007269	53.746227	390.659541	796.827197	58.206208	127.514780	985.256910	43.865453	114.777647	857.961535	69.356143	361.499697	866.538703	72.804406	168.932736	898.434877	447.503448	261.443943	857.502699	447.486341	221.662983	
